<svg width="39" height="39" viewBox="0 0 39 39" fill="none" xmlns="http://www.w3.org/2000/svg">
<path d="M11.5272 14.4037C13.115 14.4037 14.4022 13.1165 14.4022 11.5287C14.4022 9.94089 13.115 8.65371 11.5272 8.65371C9.93935 8.65371 8.65217 9.94089 8.65217 11.5287C8.65217 13.1165 9.93935 14.4037 11.5272 14.4037Z" fill="white"/>
<path fill-rule="evenodd" clip-rule="evenodd" d="M18.3888 0.872038H18.2355L6.7355 1.69621C4.05707 1.93587 1.93433 4.0586 1.69467 6.73704L0.851333 18.237C0.745444 19.2952 1.10988 20.3465 1.848 21.112L18.0247 37.2887C18.7079 37.9469 19.6253 38.3056 20.5738 38.2854C22.0249 38.2727 23.4086 37.6708 24.4072 36.6179L36.6163 24.4279C38.5129 22.8556 38.8105 20.0581 37.2872 18.122L21.0147 1.83037C20.328 1.17757 19.4129 0.819775 18.4655 0.833705L18.3888 0.872038ZM18.4655 3.95787C18.5778 3.92256 18.6982 3.92256 18.8105 3.95787L35.0063 20.1537C35.163 20.8721 34.8949 21.6167 34.3163 22.0704L22.0688 34.3179C21.6654 34.7556 21.1101 35.0229 20.5163 35.0654H20.1905L4.05217 18.7929C4.00062 18.657 4.00062 18.507 4.05217 18.3712L4.8955 6.87121C5.04596 5.82818 5.85051 5.00043 6.88884 4.82037L18.3888 3.99621L18.4655 3.95787Z" fill="white"/>
</svg>
