<svg width="21" height="22" viewBox="0 0 21 22" fill="none" xmlns="http://www.w3.org/2000/svg">
<path d="M16.592 0.497833C17.1895 0.713334 17.433 1.16211 17.5224 1.77575C17.698 2.97878 17.9281 4.17373 18.1344 5.37245C18.26 6.09923 17.8564 6.66545 17.128 6.78721L13.241 7.45149C12.5875 7.56301 12.0169 7.17349 11.8887 6.52861C11.7696 5.93221 12.1581 5.34659 12.7889 5.21244C13.2679 5.11008 13.7533 5.03897 14.2974 4.94307C13.7556 4.61699 13.1708 4.36837 12.56 4.20444C8.16269 3.01919 3.75732 6.00656 3.22666 10.5326C2.75902 14.5194 5.61656 18.2324 9.55806 18.7604C13.6526 19.3083 17.281 16.6286 17.9874 12.5373C18.0897 11.9447 18.5089 11.5535 19.0697 11.5271C19.5907 11.5018 20.109 11.8439 20.2102 12.3595C20.2684 12.6553 20.2366 12.9845 20.1779 13.2856C19.414 17.2185 16.2537 20.3023 12.3122 20.9763C6.83305 21.9126 1.77903 18.2287 0.976292 12.7086C0.236587 7.62658 3.75786 2.74173 8.80219 1.83016C11.0412 1.42448 13.1618 1.7348 15.1788 2.7789C15.2257 2.80315 15.2731 2.82632 15.3749 2.87696C15.3275 2.57903 15.2871 2.32312 15.2467 2.06883C15.1088 1.20252 15.3119 0.834014 16.1087 0.498373L16.592 0.497833Z" fill="black"/>
</svg>
